<svg xmlns="http://www.w3.org/2000/svg" width="430" height="430" style="width:100%;height:100%;transform:translate3d(0,0,0);content-visibility:visible" viewBox="0 0 430 430"><defs><clipPath id="a"><path d="M0 0h430v430H0z"/></clipPath><clipPath id="f"><path d="M0 0h430v430H0z"/></clipPath><clipPath id="e"><path d="M0 0h430v430H0z"/></clipPath><clipPath id="d"><path d="M0 0h430v430H0z"/></clipPath><clipPath id="c"><path d="M0 0h430v430H0z"/></clipPath><clipPath id="b"><path d="M0 0h430v430H0z"/></clipPath></defs><g clip-path="url(#a)"><g clip-path="url(#b)" style="display:none"><path class="tertiary" style="display:none"/><g style="display:none"><path class="secondary"/><path class="secondary" style="mix-blend-mode:multiply"/><path fill="none" class="quaternary"/><path class="primary"/><path class="primary" style="mix-blend-mode:multiply"/></g><g style="display:none"><path class="primary"/><path class="primary" style="mix-blend-mode:multiply"/><path class="tertiary"/></g></g><g clip-path="url(#c)" style="display:none"><path class="tertiary" style="display:none"/><g style="display:none"><path class="secondary"/><path class="secondary" style="mix-blend-mode:multiply"/><path fill="none" class="quaternary"/><path class="primary"/><path class="primary" style="mix-blend-mode:multiply"/></g><g style="display:none"><path class="primary"/><path class="primary" style="mix-blend-mode:multiply"/><path class="tertiary"/></g></g><g clip-path="url(#d)" style="display:none"><path class="tertiary" style="display:none"/><g style="display:none"><path class="secondary"/><path class="secondary" style="mix-blend-mode:multiply"/><path fill="none" class="quaternary"/><path class="primary"/><path class="primary" style="mix-blend-mode:multiply"/></g><g style="display:none"><path class="primary"/><path class="primary" style="mix-blend-mode:multiply"/><path class="tertiary"/></g></g><g clip-path="url(#e)" style="display:block"><path fill="#B26836" d="M88.25 102.369C90.423 53.761 102.996-100.46.491-100.46h-.982c-102.505 0-92 156.943-87.546 204.551" class="tertiary" style="display:block" transform="translate(213.972 153.148)"/><g style="display:block"><path fill="#4BB3FD" d="m181.17 245.72-13.266-1.222c-43.48 0-74.719 34.092-74.719 77.572v31.512c0 8.459 6.862 15.32 15.321 15.32h19.43c38.487 2.989 37.994 16.815 70.166 16.815h33.796c32.172 0 31.679-13.826 70.166-16.815h19.431c8.459 0 15.32-6.861 15.32-15.32V322.07c0-43.48-35.239-78.719-78.719-78.719l-9.163 2.369-.01-.063" class="secondary"/><path fill="#4BB3FD" d="m-33.83-58.86-13.266-1.222c-43.48 0-74.719 34.092-74.719 77.572v31.512c0 8.459 6.862 15.32 15.321 15.32h19.43C-87.5 29.134-95-27.288-53.186-43.705" class="secondary" opacity=".5" style="mix-blend-mode:multiply" transform="translate(215 304.58)"/><path fill="none" stroke="#EBE6EF" stroke-linecap="round" stroke-linejoin="round" stroke-width="12" d="M214.304 313.605s0 0 0 0m0 25.281s0 0 0 0m0 25.282s0 0 0 0" class="quaternary"/><path fill="#F9C9C0" d="M181.095 202.5 181 243.886h-15.125c-3.5 0-7.375.625-9.015 1.169 1.29 23.43 25.99 41.859 56.26 41.859 30.55 0 55.41-18.769 56.29-42.489 0 0-4.035-1.476-7.035-1.414-5.124.107-13.375.115-13.375.115v-40.511l-67.905-.115z" class="primary"/><path fill="#F9C9C0" d="m-32.04-63.039-.095 41.386H-47.26c-3.5 0-7.375.625-9.015 1.169.315 5.714 2.022 11.13 4.862 16.054 22.778-10.881 72.278-3.312 87.188-32.739l.09.069v-25.824l-67.905-.115z" class="primary" opacity=".5" style="mix-blend-mode:multiply" transform="translate(213.135 265.539)"/></g><g style="display:block"><path fill="#F9C9C0" d="m239.44 68.016 36.84 33.107.267 68.253c0 34.139-27.681 61.821-61.82 61.821h-1.51c-34.139 0-61.82-27.682-61.82-61.821l.122-42.324" class="primary"/><path fill="#F9C9C0" d="m-50.425-72.87 8.231 9.907V-5.96c.221 29.383 39.471 50.383 76.443 43.976-9.652 6.235-21.151 9.853-33.494 9.853h-1.51c-34.139 0-61.82-27.681-61.82-61.82l.093-41.323" class="primary" opacity=".5" style="mix-blend-mode:multiply" transform="translate(213.972 183.327)"/><path fill="#B26836" d="M147.785 89.076c-3.983 14.548-.33 50.839-.33 50.839 1.331-.273 2.652-.567 3.941-.86 74.692-16.907 86.788-61.81 86.788-61.81 22.267 12.19 38.362 40.802 38.362 58.215.073 2.012 0 3.166 0 3.166 3.87-6.273 4.425-22.931 3.628-49.02 0 0-25.008-33.77-67.006-32.703" class="tertiary"/></g></g><g clip-path="url(#f)" style="display:none"><path class="tertiary" style="display:none"/><g style="display:none"><path class="secondary"/><path class="secondary" style="mix-blend-mode:multiply"/><path fill="none" class="quaternary"/><path class="primary"/><path class="primary" style="mix-blend-mode:multiply"/></g><g style="display:none"><path class="primary"/><path class="primary" style="mix-blend-mode:multiply"/></g><g style="display:none"><path class="primary"/><path class="primary" style="mix-blend-mode:multiply"/></g><path class="tertiary" style="display:none"/></g></g></svg>